<?xml version="1.0" encoding="UTF-8"?>
<svg xmlns="http://www.w3.org/2000/svg" xmlns:xlink="http://www.w3.org/1999/xlink" width="854" height="480" viewBox="0 0 854 480">
<defs>
<g>
<g id="glyph-0-0">
<path d="M 3.640625 0.171875 C 2.847656 0.171875 2.191406 -0.0546875 1.671875 -0.515625 C 1.148438 -0.972656 0.890625 -1.691406 0.890625 -2.671875 C 0.890625 -3.617188 1.222656 -4.316406 1.890625 -4.765625 C 2.554688 -5.210938 3.570312 -5.460938 4.9375 -5.515625 L 6.421875 -5.5625 L 6.421875 -6.625 C 6.421875 -7.050781 6.382812 -7.425781 6.3125 -7.75 C 6.238281 -8.082031 6.082031 -8.34375 5.84375 -8.53125 C 5.613281 -8.71875 5.253906 -8.8125 4.765625 -8.8125 C 4.316406 -8.8125 3.972656 -8.726562 3.734375 -8.5625 C 3.492188 -8.40625 3.332031 -8.179688 3.25 -7.890625 C 3.175781 -7.597656 3.140625 -7.257812 3.140625 -6.875 C 2.648438 -6.875 2.273438 -6.957031 2.015625 -7.125 C 1.765625 -7.300781 1.640625 -7.59375 1.640625 -8 C 1.640625 -8.414062 1.78125 -8.75 2.0625 -9 C 2.351562 -9.25 2.742188 -9.425781 3.234375 -9.53125 C 3.722656 -9.644531 4.257812 -9.703125 4.84375 -9.703125 C 5.925781 -9.703125 6.738281 -9.472656 7.28125 -9.015625 C 7.820312 -8.554688 8.09375 -7.757812 8.09375 -6.625 L 8.09375 -2.03125 C 8.09375 -1.53125 8.175781 -1.191406 8.34375 -1.015625 C 8.507812 -0.835938 8.789062 -0.75 9.1875 -0.75 L 9.25 -0.75 L 9.25 0 L 6.84375 0 L 6.5625 -1.53125 L 6.421875 -1.53125 C 6.171875 -1.195312 5.925781 -0.898438 5.6875 -0.640625 C 5.445312 -0.390625 5.171875 -0.191406 4.859375 -0.046875 C 4.546875 0.0976562 4.140625 0.171875 3.640625 0.171875 Z M 4.046875 -0.921875 C 4.773438 -0.921875 5.351562 -1.144531 5.78125 -1.59375 C 6.207031 -2.039062 6.421875 -2.640625 6.421875 -3.390625 L 6.421875 -4.84375 L 5.28125 -4.78125 C 4.269531 -4.738281 3.570312 -4.535156 3.1875 -4.171875 C 2.800781 -3.804688 2.609375 -3.273438 2.609375 -2.578125 C 2.609375 -1.472656 3.085938 -0.921875 4.046875 -0.921875 Z "/>
</g>
<g id="glyph-0-1">
<path d="M 0.3125 4.265625 L 0.3125 3.515625 L 0.46875 3.515625 C 0.863281 3.515625 1.203125 3.441406 1.484375 3.296875 C 1.773438 3.148438 1.921875 2.796875 1.921875 2.234375 L 1.921875 -7.578125 C 1.921875 -8.097656 1.773438 -8.425781 1.484375 -8.5625 C 1.191406 -8.707031 0.851562 -8.78125 0.46875 -8.78125 L 0.234375 -8.78125 L 0.234375 -9.53125 L 3.34375 -9.53125 L 3.515625 -7.9375 L 3.59375 -7.9375 C 3.863281 -8.476562 4.210938 -8.90625 4.640625 -9.21875 C 5.066406 -9.539062 5.625 -9.703125 6.3125 -9.703125 C 7.488281 -9.703125 8.382812 -9.304688 9 -8.515625 C 9.625 -7.734375 9.9375 -6.488281 9.9375 -4.78125 C 9.9375 -3.0625 9.625 -1.804688 9 -1.015625 C 8.382812 -0.222656 7.488281 0.171875 6.3125 0.171875 C 5.625 0.171875 5.0625 0.03125 4.625 -0.25 C 4.195312 -0.539062 3.851562 -0.921875 3.59375 -1.390625 L 3.515625 -1.390625 C 3.546875 -1.046875 3.566406 -0.679688 3.578125 -0.296875 C 3.585938 0.0859375 3.59375 0.394531 3.59375 0.625 L 3.59375 2.328125 C 3.59375 2.847656 3.738281 3.175781 4.03125 3.3125 C 4.320312 3.445312 4.660156 3.515625 5.046875 3.515625 L 5.109375 3.515625 L 5.109375 4.265625 Z M 6.03125 -0.953125 C 6.8125 -0.953125 7.367188 -1.28125 7.703125 -1.9375 C 8.046875 -2.601562 8.21875 -3.554688 8.21875 -4.796875 C 8.21875 -6.066406 8.046875 -7.015625 7.703125 -7.640625 C 7.367188 -8.265625 6.804688 -8.578125 6.015625 -8.578125 C 5.085938 -8.578125 4.453125 -8.265625 4.109375 -7.640625 C 3.765625 -7.015625 3.59375 -6.0625 3.59375 -4.78125 C 3.59375 -3.550781 3.765625 -2.601562 4.109375 -1.9375 C 4.453125 -1.28125 5.09375 -0.953125 6.03125 -0.953125 Z "/>
</g>
<g id="glyph-0-2">
<path d="M 5.109375 0.171875 C 3.816406 0.171875 2.804688 -0.25 2.078125 -1.09375 C 1.347656 -1.945312 0.984375 -3.144531 0.984375 -4.6875 C 0.984375 -6.351562 1.328125 -7.601562 2.015625 -8.4375 C 2.703125 -9.28125 3.671875 -9.703125 4.921875 -9.703125 C 6.078125 -9.703125 6.984375 -9.347656 7.640625 -8.640625 C 8.296875 -7.929688 8.625 -6.867188 8.625 -5.453125 L 8.625 -4.640625 L 2.703125 -4.640625 C 2.722656 -3.347656 2.957031 -2.40625 3.40625 -1.8125 C 3.851562 -1.226562 4.503906 -0.9375 5.359375 -0.9375 C 5.972656 -0.9375 6.492188 -1.0625 6.921875 -1.3125 C 7.359375 -1.570312 7.679688 -1.863281 7.890625 -2.1875 C 7.972656 -2.15625 8.050781 -2.082031 8.125 -1.96875 C 8.195312 -1.863281 8.234375 -1.734375 8.234375 -1.578125 C 8.234375 -1.347656 8.117188 -1.09375 7.890625 -0.8125 C 7.671875 -0.539062 7.328125 -0.304688 6.859375 -0.109375 C 6.398438 0.078125 5.816406 0.171875 5.109375 0.171875 Z M 6.828125 -5.59375 C 6.828125 -6.550781 6.679688 -7.316406 6.390625 -7.890625 C 6.097656 -8.460938 5.597656 -8.75 4.890625 -8.75 C 4.234375 -8.75 3.722656 -8.476562 3.359375 -7.9375 C 3.003906 -7.394531 2.796875 -6.613281 2.734375 -5.59375 Z "/>
</g>
<g id="glyph-0-3">
<path d="M 0.5 0 L 0.5 -0.75 L 0.640625 -0.75 C 1.046875 -0.75 1.390625 -0.820312 1.671875 -0.96875 C 1.953125 -1.113281 2.09375 -1.46875 2.09375 -2.03125 L 2.09375 -7.578125 C 2.09375 -8.097656 1.953125 -8.425781 1.671875 -8.5625 C 1.398438 -8.707031 1.066406 -8.78125 0.671875 -8.78125 L 0.59375 -8.78125 L 0.59375 -9.53125 L 3.46875 -9.53125 L 3.703125 -8.09375 L 3.78125 -8.09375 C 4.15625 -8.757812 4.566406 -9.191406 5.015625 -9.390625 C 5.472656 -9.597656 5.988281 -9.703125 6.5625 -9.703125 C 7.5 -9.703125 8.226562 -9.425781 8.75 -8.875 C 9.28125 -8.332031 9.546875 -7.445312 9.546875 -6.21875 L 9.546875 -2.03125 C 9.546875 -1.46875 9.664062 -1.113281 9.90625 -0.96875 C 10.15625 -0.820312 10.476562 -0.75 10.875 -0.75 L 10.96875 -0.75 L 10.96875 0 L 7.875 0 L 7.875 -6.140625 C 7.875 -6.910156 7.726562 -7.507812 7.4375 -7.9375 C 7.144531 -8.363281 6.640625 -8.578125 5.921875 -8.578125 C 5.390625 -8.578125 4.960938 -8.441406 4.640625 -8.171875 C 4.328125 -7.898438 4.101562 -7.546875 3.96875 -7.109375 C 3.832031 -6.671875 3.765625 -6.195312 3.765625 -5.6875 L 3.765625 -1.9375 C 3.765625 -1.414062 3.90625 -1.085938 4.1875 -0.953125 C 4.46875 -0.816406 4.800781 -0.75 5.1875 -0.75 L 5.28125 -0.75 L 5.28125 0 Z "/>
</g>
<g id="glyph-0-4">
<path d="M 4.609375 0.171875 C 3.429688 0.171875 2.53125 -0.21875 1.90625 -1 C 1.289062 -1.789062 0.984375 -3.039062 0.984375 -4.75 C 0.984375 -6.46875 1.289062 -7.722656 1.90625 -8.515625 C 2.53125 -9.304688 3.429688 -9.703125 4.609375 -9.703125 C 5.296875 -9.703125 5.851562 -9.554688 6.28125 -9.265625 C 6.71875 -8.984375 7.066406 -8.609375 7.328125 -8.140625 L 7.4375 -8.140625 C 7.394531 -8.441406 7.363281 -8.769531 7.34375 -9.125 C 7.332031 -9.488281 7.328125 -9.8125 7.328125 -10.09375 L 7.328125 -11.5625 C 7.328125 -12.082031 7.179688 -12.410156 6.890625 -12.546875 C 6.597656 -12.691406 6.257812 -12.765625 5.875 -12.765625 L 5.71875 -12.765625 L 5.71875 -13.515625 L 9 -13.515625 L 9 -1.953125 C 9 -1.429688 9.144531 -1.097656 9.4375 -0.953125 C 9.726562 -0.816406 10.066406 -0.75 10.453125 -0.75 L 10.59375 -0.75 L 10.59375 0 L 7.59375 0 L 7.390625 -1.59375 L 7.328125 -1.59375 C 7.066406 -1.050781 6.722656 -0.617188 6.296875 -0.296875 C 5.867188 0.015625 5.304688 0.171875 4.609375 0.171875 Z M 4.90625 -0.953125 C 5.832031 -0.953125 6.46875 -1.265625 6.8125 -1.890625 C 7.15625 -2.515625 7.328125 -3.46875 7.328125 -4.75 C 7.328125 -5.976562 7.15625 -6.921875 6.8125 -7.578125 C 6.46875 -8.242188 5.828125 -8.578125 4.890625 -8.578125 C 4.109375 -8.578125 3.546875 -8.242188 3.203125 -7.578125 C 2.867188 -6.921875 2.703125 -5.972656 2.703125 -4.734375 C 2.703125 -3.472656 2.867188 -2.523438 3.203125 -1.890625 C 3.546875 -1.265625 4.113281 -0.953125 4.90625 -0.953125 Z "/>
</g>
</g>
</defs>
<g fill="rgb(100%, 100%, 100%)" fill-opacity="1">
<use xlink:href="#glyph-0-0" x="30" y="39.003906"/>
<use xlink:href="#glyph-0-1" x="40" y="39.003906"/>
<use xlink:href="#glyph-0-1" x="51" y="39.003906"/>
<use xlink:href="#glyph-0-2" x="62" y="39.003906"/>
<use xlink:href="#glyph-0-3" x="72" y="39.003906"/>
<use xlink:href="#glyph-0-4" x="83" y="39.003906"/>
</g>
</svg>
