<?xml version="1.0" encoding="UTF-8"?>
<svg xmlns="http://www.w3.org/2000/svg" xmlns:xlink="http://www.w3.org/1999/xlink" width="854" height="480" viewBox="0 0 854 480">
<defs>
<g>
<g id="glyph-0-0">
<path d="M 2.625 0.078125 C 2.195312 0.078125 1.804688 -0.0234375 1.453125 -0.234375 C 1.109375 -0.441406 0.832031 -0.726562 0.625 -1.09375 C 0.425781 -1.46875 0.328125 -1.878906 0.328125 -2.328125 C 0.328125 -2.785156 0.425781 -3.195312 0.625 -3.5625 C 0.832031 -3.9375 1.109375 -4.226562 1.453125 -4.4375 C 1.804688 -4.644531 2.195312 -4.75 2.625 -4.75 C 2.957031 -4.75 3.265625 -4.691406 3.546875 -4.578125 C 3.828125 -4.460938 4.066406 -4.300781 4.265625 -4.09375 C 4.472656 -3.894531 4.628906 -3.65625 4.734375 -3.375 L 4.109375 -3.375 C 3.972656 -3.644531 3.773438 -3.859375 3.515625 -4.015625 C 3.265625 -4.171875 2.972656 -4.25 2.640625 -4.25 C 2.316406 -4.25 2.019531 -4.164062 1.75 -4 C 1.488281 -3.832031 1.28125 -3.601562 1.125 -3.3125 C 0.976562 -3.019531 0.90625 -2.691406 0.90625 -2.328125 C 0.90625 -1.972656 0.976562 -1.648438 1.125 -1.359375 C 1.28125 -1.066406 1.488281 -0.835938 1.75 -0.671875 C 2.019531 -0.503906 2.316406 -0.421875 2.640625 -0.421875 C 2.929688 -0.421875 3.195312 -0.484375 3.4375 -0.609375 C 3.6875 -0.734375 3.878906 -0.898438 4.015625 -1.109375 C 4.160156 -1.316406 4.234375 -1.554688 4.234375 -1.828125 L 4.234375 -1.859375 L 3 -1.859375 L 3 -2.359375 L 4.796875 -2.359375 L 4.796875 -2.015625 C 4.796875 -1.617188 4.703125 -1.257812 4.515625 -0.9375 C 4.328125 -0.625 4.066406 -0.375 3.734375 -0.1875 C 3.398438 -0.0078125 3.03125 0.078125 2.625 0.078125 Z "/>
</g>
<g id="glyph-0-1">
<path d="M 0.609375 -4.671875 L 1.15625 -4.671875 L 1.15625 0 L 0.609375 0 Z "/>
</g>
<g id="glyph-0-2">
<path d="M 3.359375 0 L 2.859375 0 L 2.859375 -0.546875 C 2.734375 -0.347656 2.578125 -0.191406 2.390625 -0.078125 C 2.203125 0.0234375 1.976562 0.078125 1.71875 0.078125 C 1.476562 0.078125 1.257812 0.0234375 1.0625 -0.078125 C 0.875 -0.179688 0.726562 -0.332031 0.625 -0.53125 C 0.519531 -0.738281 0.46875 -0.984375 0.46875 -1.265625 L 0.46875 -3.421875 L 1 -3.421875 L 1 -1.328125 C 1 -1.023438 1.070312 -0.789062 1.21875 -0.625 C 1.375 -0.46875 1.585938 -0.390625 1.859375 -0.390625 C 2.046875 -0.390625 2.210938 -0.429688 2.359375 -0.515625 C 2.515625 -0.597656 2.628906 -0.710938 2.703125 -0.859375 C 2.785156 -1.015625 2.828125 -1.191406 2.828125 -1.390625 L 2.828125 -3.421875 L 3.359375 -3.421875 Z "/>
</g>
<g id="glyph-0-3">
<path d="M 2 0.078125 C 1.675781 0.078125 1.382812 0.00390625 1.125 -0.140625 C 0.863281 -0.296875 0.660156 -0.507812 0.515625 -0.78125 C 0.367188 -1.0625 0.296875 -1.375 0.296875 -1.71875 C 0.296875 -2.050781 0.367188 -2.351562 0.515625 -2.625 C 0.671875 -2.894531 0.878906 -3.109375 1.140625 -3.265625 C 1.398438 -3.421875 1.6875 -3.5 2 -3.5 C 2.320312 -3.5 2.609375 -3.421875 2.859375 -3.265625 C 3.117188 -3.117188 3.316406 -2.910156 3.453125 -2.640625 C 3.585938 -2.367188 3.65625 -2.054688 3.65625 -1.703125 L 3.65625 -1.59375 L 0.828125 -1.59375 C 0.847656 -1.351562 0.910156 -1.140625 1.015625 -0.953125 C 1.117188 -0.773438 1.253906 -0.640625 1.421875 -0.546875 C 1.585938 -0.453125 1.78125 -0.40625 2 -0.40625 C 2.207031 -0.40625 2.390625 -0.441406 2.546875 -0.515625 C 2.710938 -0.597656 2.847656 -0.71875 2.953125 -0.875 L 3.546875 -0.875 C 3.410156 -0.570312 3.207031 -0.335938 2.9375 -0.171875 C 2.675781 -0.00390625 2.363281 0.078125 2 0.078125 Z M 3.109375 -2.015625 C 3.078125 -2.210938 3.007812 -2.382812 2.90625 -2.53125 C 2.800781 -2.6875 2.671875 -2.804688 2.515625 -2.890625 C 2.359375 -2.972656 2.1875 -3.015625 2 -3.015625 C 1.800781 -3.015625 1.617188 -2.972656 1.453125 -2.890625 C 1.296875 -2.804688 1.164062 -2.6875 1.0625 -2.53125 C 0.957031 -2.382812 0.882812 -2.210938 0.84375 -2.015625 Z "/>
</g>
<g id="glyph-0-4">
</g>
<g id="glyph-0-5">
<path d="M 1.984375 0.078125 C 1.671875 0.078125 1.390625 0.0195312 1.140625 -0.09375 C 0.890625 -0.21875 0.695312 -0.382812 0.5625 -0.59375 C 0.425781 -0.800781 0.359375 -1.039062 0.359375 -1.3125 L 0.921875 -1.3125 C 0.921875 -1.132812 0.960938 -0.976562 1.046875 -0.84375 C 1.140625 -0.707031 1.269531 -0.601562 1.4375 -0.53125 C 1.601562 -0.457031 1.789062 -0.421875 2 -0.421875 C 2.207031 -0.421875 2.390625 -0.453125 2.546875 -0.515625 C 2.703125 -0.585938 2.820312 -0.6875 2.90625 -0.8125 C 2.988281 -0.945312 3.03125 -1.097656 3.03125 -1.265625 C 3.03125 -1.472656 2.96875 -1.640625 2.84375 -1.765625 C 2.726562 -1.898438 2.5625 -1.992188 2.34375 -2.046875 L 1.578125 -2.25 C 1.234375 -2.332031 0.960938 -2.476562 0.765625 -2.6875 C 0.578125 -2.90625 0.484375 -3.164062 0.484375 -3.46875 C 0.484375 -3.707031 0.546875 -3.925781 0.671875 -4.125 C 0.796875 -4.320312 0.972656 -4.472656 1.203125 -4.578125 C 1.429688 -4.691406 1.6875 -4.75 1.96875 -4.75 C 2.269531 -4.75 2.535156 -4.691406 2.765625 -4.578125 C 2.992188 -4.472656 3.171875 -4.320312 3.296875 -4.125 C 3.421875 -3.925781 3.484375 -3.703125 3.484375 -3.453125 L 2.921875 -3.453125 C 2.921875 -3.609375 2.878906 -3.742188 2.796875 -3.859375 C 2.722656 -3.984375 2.613281 -4.078125 2.46875 -4.140625 C 2.332031 -4.210938 2.171875 -4.25 1.984375 -4.25 C 1.796875 -4.25 1.628906 -4.21875 1.484375 -4.15625 C 1.347656 -4.09375 1.238281 -4 1.15625 -3.875 C 1.082031 -3.757812 1.046875 -3.625 1.046875 -3.46875 C 1.046875 -3.289062 1.101562 -3.144531 1.21875 -3.03125 C 1.332031 -2.914062 1.488281 -2.832031 1.6875 -2.78125 L 2.46875 -2.578125 C 2.6875 -2.523438 2.878906 -2.429688 3.046875 -2.296875 C 3.222656 -2.171875 3.359375 -2.019531 3.453125 -1.84375 C 3.546875 -1.664062 3.59375 -1.472656 3.59375 -1.265625 C 3.59375 -1.015625 3.523438 -0.785156 3.390625 -0.578125 C 3.253906 -0.378906 3.0625 -0.21875 2.8125 -0.09375 C 2.570312 0.0195312 2.296875 0.078125 1.984375 0.078125 Z "/>
</g>
<g id="glyph-0-6">
<path d="M 1.6875 0 C 1.53125 0 1.382812 -0.03125 1.25 -0.09375 C 1.113281 -0.164062 1.007812 -0.265625 0.9375 -0.390625 C 0.863281 -0.515625 0.828125 -0.65625 0.828125 -0.8125 L 0.828125 -2.9375 L 0.21875 -2.9375 L 0.234375 -3.421875 L 0.59375 -3.421875 C 0.675781 -3.421875 0.742188 -3.445312 0.796875 -3.5 C 0.847656 -3.550781 0.875 -3.617188 0.875 -3.703125 L 0.875 -4.25 L 1.359375 -4.25 L 1.359375 -3.421875 L 2.28125 -3.421875 L 2.28125 -2.9375 L 1.359375 -2.9375 L 1.359375 -0.84375 C 1.359375 -0.738281 1.394531 -0.648438 1.46875 -0.578125 C 1.539062 -0.503906 1.628906 -0.46875 1.734375 -0.46875 L 2.28125 -0.46875 L 2.28125 0 Z "/>
</g>
<g id="glyph-0-7">
<path d="M 0.5625 -3.421875 L 1.09375 -3.421875 L 1.09375 0 L 0.5625 0 Z M 0.53125 -4.671875 L 1.125 -4.671875 L 1.125 -4.0625 L 0.53125 -4.0625 Z "/>
</g>
<g id="glyph-0-8">
<path d="M 2 0.078125 C 1.675781 0.078125 1.382812 0 1.125 -0.15625 C 0.863281 -0.3125 0.660156 -0.523438 0.515625 -0.796875 C 0.367188 -1.066406 0.296875 -1.367188 0.296875 -1.703125 C 0.296875 -2.046875 0.367188 -2.351562 0.515625 -2.625 C 0.660156 -2.894531 0.863281 -3.109375 1.125 -3.265625 C 1.382812 -3.421875 1.675781 -3.5 2 -3.5 C 2.25 -3.5 2.484375 -3.445312 2.703125 -3.34375 C 2.921875 -3.25 3.101562 -3.113281 3.25 -2.9375 C 3.394531 -2.757812 3.5 -2.550781 3.5625 -2.3125 L 2.984375 -2.3125 C 2.898438 -2.53125 2.769531 -2.703125 2.59375 -2.828125 C 2.425781 -2.953125 2.226562 -3.015625 2 -3.015625 C 1.78125 -3.015625 1.582031 -2.957031 1.40625 -2.84375 C 1.226562 -2.726562 1.085938 -2.570312 0.984375 -2.375 C 0.890625 -2.175781 0.84375 -1.953125 0.84375 -1.703125 C 0.84375 -1.453125 0.890625 -1.226562 0.984375 -1.03125 C 1.085938 -0.832031 1.226562 -0.675781 1.40625 -0.5625 C 1.582031 -0.457031 1.78125 -0.40625 2 -0.40625 C 2.226562 -0.40625 2.425781 -0.46875 2.59375 -0.59375 C 2.769531 -0.71875 2.898438 -0.882812 2.984375 -1.09375 L 3.5625 -1.09375 C 3.5 -0.863281 3.394531 -0.65625 3.25 -0.46875 C 3.101562 -0.289062 2.921875 -0.15625 2.703125 -0.0625 C 2.484375 0.03125 2.25 0.078125 2 0.078125 Z "/>
</g>
<g id="glyph-0-9">
<path d="M 0.5625 -4.671875 L 1.09375 -4.671875 L 1.09375 -1.8125 L 2.640625 -3.421875 L 3.3125 -3.421875 L 1.765625 -1.8125 L 3.359375 0 L 2.671875 0 L 1.09375 -1.78125 L 1.09375 0 L 0.5625 0 Z "/>
</g>
<g id="glyph-0-10">
<path d="M 1.5 0.9375 C 1.289062 0.738281 1.101562 0.488281 0.9375 0.1875 C 0.78125 -0.101562 0.660156 -0.425781 0.578125 -0.78125 C 0.492188 -1.132812 0.453125 -1.5 0.453125 -1.875 C 0.453125 -2.238281 0.492188 -2.597656 0.578125 -2.953125 C 0.660156 -3.304688 0.78125 -3.628906 0.9375 -3.921875 C 1.101562 -4.222656 1.289062 -4.472656 1.5 -4.671875 L 2.03125 -4.671875 C 1.8125 -4.453125 1.617188 -4.1875 1.453125 -3.875 C 1.285156 -3.570312 1.15625 -3.25 1.0625 -2.90625 C 0.976562 -2.5625 0.9375 -2.21875 0.9375 -1.875 C 0.9375 -1.519531 0.976562 -1.171875 1.0625 -0.828125 C 1.15625 -0.484375 1.285156 -0.160156 1.453125 0.140625 C 1.617188 0.453125 1.8125 0.71875 2.03125 0.9375 Z "/>
</g>
<g id="glyph-0-11">
<path d="M 1.765625 -3.5 C 2.023438 -3.5 2.25 -3.445312 2.4375 -3.34375 C 2.632812 -3.25 2.785156 -3.113281 2.890625 -2.9375 C 2.992188 -2.757812 3.046875 -2.546875 3.046875 -2.296875 L 3.046875 0 L 2.515625 0 L 2.515625 -0.484375 C 2.410156 -0.304688 2.265625 -0.164062 2.078125 -0.0625 C 1.890625 0.03125 1.675781 0.078125 1.4375 0.078125 C 1.21875 0.078125 1.019531 0.0351562 0.84375 -0.046875 C 0.675781 -0.128906 0.539062 -0.242188 0.4375 -0.390625 C 0.34375 -0.546875 0.296875 -0.71875 0.296875 -0.90625 C 0.296875 -1.082031 0.34375 -1.242188 0.4375 -1.390625 C 0.53125 -1.546875 0.660156 -1.671875 0.828125 -1.765625 C 0.992188 -1.867188 1.175781 -1.929688 1.375 -1.953125 L 2.28125 -2.0625 C 2.394531 -2.070312 2.472656 -2.140625 2.515625 -2.265625 L 2.515625 -2.359375 C 2.515625 -2.566406 2.445312 -2.726562 2.3125 -2.84375 C 2.175781 -2.96875 1.992188 -3.03125 1.765625 -3.03125 C 1.609375 -3.03125 1.472656 -3.003906 1.359375 -2.953125 C 1.242188 -2.910156 1.148438 -2.847656 1.078125 -2.765625 C 1.015625 -2.679688 0.972656 -2.597656 0.953125 -2.515625 L 0.421875 -2.515625 C 0.441406 -2.691406 0.507812 -2.851562 0.625 -3 C 0.75 -3.15625 0.90625 -3.273438 1.09375 -3.359375 C 1.289062 -3.453125 1.515625 -3.5 1.765625 -3.5 Z M 0.84375 -0.921875 C 0.84375 -0.816406 0.875 -0.71875 0.9375 -0.625 C 1 -0.539062 1.082031 -0.472656 1.1875 -0.421875 C 1.300781 -0.378906 1.425781 -0.359375 1.5625 -0.359375 C 1.75 -0.359375 1.914062 -0.394531 2.0625 -0.46875 C 2.207031 -0.550781 2.316406 -0.660156 2.390625 -0.796875 C 2.472656 -0.929688 2.515625 -1.09375 2.515625 -1.28125 L 2.515625 -1.6875 L 1.453125 -1.5625 C 1.335938 -1.550781 1.234375 -1.515625 1.140625 -1.453125 C 1.046875 -1.398438 0.972656 -1.328125 0.921875 -1.234375 C 0.867188 -1.140625 0.84375 -1.035156 0.84375 -0.921875 Z "/>
</g>
<g id="glyph-0-12">
<path d="M 1.078125 -3.421875 L 1.078125 -2.8125 C 1.210938 -3.03125 1.382812 -3.195312 1.59375 -3.3125 C 1.8125 -3.4375 2.066406 -3.5 2.359375 -3.5 C 2.671875 -3.5 2.953125 -3.421875 3.203125 -3.265625 C 3.453125 -3.117188 3.644531 -2.910156 3.78125 -2.640625 C 3.914062 -2.367188 3.984375 -2.054688 3.984375 -1.703125 C 3.984375 -1.359375 3.914062 -1.050781 3.78125 -0.78125 C 3.644531 -0.507812 3.453125 -0.296875 3.203125 -0.140625 C 2.953125 0.00390625 2.671875 0.078125 2.359375 0.078125 C 2.078125 0.078125 1.828125 0.0195312 1.609375 -0.09375 C 1.390625 -0.207031 1.21875 -0.367188 1.09375 -0.578125 L 1.09375 1.0625 L 0.5625 1.0625 L 0.5625 -3.421875 Z M 2.265625 -0.40625 C 2.492188 -0.40625 2.695312 -0.457031 2.875 -0.5625 C 3.050781 -0.675781 3.1875 -0.832031 3.28125 -1.03125 C 3.375 -1.226562 3.421875 -1.453125 3.421875 -1.703125 C 3.421875 -1.960938 3.375 -2.191406 3.28125 -2.390625 C 3.1875 -2.585938 3.050781 -2.738281 2.875 -2.84375 C 2.695312 -2.957031 2.492188 -3.015625 2.265625 -3.015625 C 2.035156 -3.015625 1.832031 -2.957031 1.65625 -2.84375 C 1.476562 -2.738281 1.335938 -2.585938 1.234375 -2.390625 C 1.140625 -2.191406 1.09375 -1.960938 1.09375 -1.703125 C 1.09375 -1.453125 1.140625 -1.226562 1.234375 -1.03125 C 1.335938 -0.832031 1.476562 -0.675781 1.65625 -0.5625 C 1.832031 -0.457031 2.035156 -0.40625 2.265625 -0.40625 Z "/>
</g>
<g id="glyph-0-13">
<path d="M 0.5625 -3.421875 L 1.078125 -3.421875 L 1.078125 -2.859375 C 1.191406 -3.066406 1.34375 -3.222656 1.53125 -3.328125 C 1.726562 -3.441406 1.953125 -3.5 2.203125 -3.5 C 2.453125 -3.5 2.671875 -3.445312 2.859375 -3.34375 C 3.046875 -3.238281 3.191406 -3.082031 3.296875 -2.875 C 3.410156 -2.675781 3.46875 -2.429688 3.46875 -2.140625 L 3.46875 0 L 2.921875 0 L 2.921875 -2.09375 C 2.921875 -2.382812 2.84375 -2.613281 2.6875 -2.78125 C 2.539062 -2.945312 2.332031 -3.03125 2.0625 -3.03125 C 1.875 -3.03125 1.707031 -2.988281 1.5625 -2.90625 C 1.414062 -2.820312 1.300781 -2.703125 1.21875 -2.546875 C 1.132812 -2.390625 1.09375 -2.21875 1.09375 -2.03125 L 1.09375 0 L 0.5625 0 Z "/>
</g>
<g id="glyph-0-14">
<path d="M 3.1875 -0.578125 C 3.0625 -0.367188 2.890625 -0.207031 2.671875 -0.09375 C 2.453125 0.0195312 2.203125 0.078125 1.921875 0.078125 C 1.609375 0.078125 1.328125 0.00390625 1.078125 -0.140625 C 0.828125 -0.296875 0.632812 -0.507812 0.5 -0.78125 C 0.363281 -1.050781 0.296875 -1.359375 0.296875 -1.703125 C 0.296875 -2.054688 0.363281 -2.367188 0.5 -2.640625 C 0.632812 -2.910156 0.828125 -3.117188 1.078125 -3.265625 C 1.328125 -3.421875 1.609375 -3.5 1.921875 -3.5 C 2.203125 -3.5 2.453125 -3.441406 2.671875 -3.328125 C 2.890625 -3.210938 3.0625 -3.046875 3.1875 -2.828125 L 3.1875 -4.671875 L 3.71875 -4.671875 L 3.71875 0 L 3.1875 0 Z M 2.015625 -0.40625 C 2.242188 -0.40625 2.445312 -0.457031 2.625 -0.5625 C 2.800781 -0.675781 2.9375 -0.832031 3.03125 -1.03125 C 3.132812 -1.226562 3.1875 -1.453125 3.1875 -1.703125 C 3.1875 -1.960938 3.132812 -2.191406 3.03125 -2.390625 C 2.9375 -2.585938 2.800781 -2.738281 2.625 -2.84375 C 2.445312 -2.957031 2.242188 -3.015625 2.015625 -3.015625 C 1.785156 -3.015625 1.582031 -2.957031 1.40625 -2.84375 C 1.226562 -2.738281 1.085938 -2.585938 0.984375 -2.390625 C 0.890625 -2.191406 0.84375 -1.960938 0.84375 -1.703125 C 0.84375 -1.453125 0.890625 -1.226562 0.984375 -1.03125 C 1.085938 -0.832031 1.226562 -0.675781 1.40625 -0.5625 C 1.582031 -0.457031 1.785156 -0.40625 2.015625 -0.40625 Z "/>
</g>
<g id="glyph-0-15">
<path d="M 0.1875 0.9375 C 0.414062 0.71875 0.613281 0.453125 0.78125 0.140625 C 0.945312 -0.160156 1.070312 -0.484375 1.15625 -0.828125 C 1.25 -1.171875 1.296875 -1.519531 1.296875 -1.875 C 1.296875 -2.21875 1.25 -2.5625 1.15625 -2.90625 C 1.070312 -3.25 0.945312 -3.570312 0.78125 -3.875 C 0.613281 -4.1875 0.421875 -4.453125 0.203125 -4.671875 L 0.734375 -4.671875 C 0.941406 -4.472656 1.125 -4.222656 1.28125 -3.921875 C 1.445312 -3.628906 1.570312 -3.304688 1.65625 -2.953125 C 1.738281 -2.597656 1.78125 -2.238281 1.78125 -1.875 C 1.78125 -1.5 1.738281 -1.132812 1.65625 -0.78125 C 1.570312 -0.425781 1.445312 -0.101562 1.28125 0.1875 C 1.125 0.488281 0.941406 0.738281 0.734375 0.9375 Z "/>
</g>
</g>
</defs>
<g fill="rgb(100%, 100%, 100%)" fill-opacity="1">
<use xlink:href="#glyph-0-0" x="30" y="26.333984"/>
<use xlink:href="#glyph-0-1" x="35" y="26.333984"/>
<use xlink:href="#glyph-0-2" x="37" y="26.333984"/>
<use xlink:href="#glyph-0-3" x="41" y="26.333984"/>
<use xlink:href="#glyph-0-4" x="45" y="26.333984"/>
<use xlink:href="#glyph-0-5" x="47" y="26.333984"/>
<use xlink:href="#glyph-0-6" x="51" y="26.333984"/>
<use xlink:href="#glyph-0-7" x="54" y="26.333984"/>
<use xlink:href="#glyph-0-8" x="56" y="26.333984"/>
<use xlink:href="#glyph-0-9" x="60" y="26.333984"/>
<use xlink:href="#glyph-0-4" x="63" y="26.333984"/>
<use xlink:href="#glyph-0-10" x="65" y="26.333984"/>
<use xlink:href="#glyph-0-11" x="67" y="26.333984"/>
<use xlink:href="#glyph-0-12" x="71" y="26.333984"/>
<use xlink:href="#glyph-0-12" x="75" y="26.333984"/>
<use xlink:href="#glyph-0-3" x="79" y="26.333984"/>
<use xlink:href="#glyph-0-13" x="83" y="26.333984"/>
<use xlink:href="#glyph-0-14" x="87" y="26.333984"/>
<use xlink:href="#glyph-0-15" x="91" y="26.333984"/>
</g>
</svg>
